# AST/ASF file generated using VICON BodyLanguage
# -----------------------------------------------
:version 1.10
:name VICON
:units
  mass 1.0
  length 0.45
  angle deg
:documentation
   .ast/.asf automatically generated from VICON data using
   VICON BodyBuilder and BodyLanguage model FoxedUp or BRILLIANT.MOD
:root
   order TX TY TZ RX RY RZ
   axis XYZ
   position 0 0 0  
   orientation 0 0 0 
:bonedata
  begin
     id 1 
     name lhipjoint
     direction 0.621036 -0.695554 0.361275 
     length 2.46325 
     axis 0 0 0  XYZ
  end
  begin
     id 2 
     name lfemur
     direction 0.34202 -0.939693 0  
     length 6.54784  
     axis 0 0 20  XYZ
    dof rx ry rz
    limits (-160.0 20.0)
           (-70.0 70.0)
           (-60.0 70.0)
  end
  begin
     id 3 
     name ltibia
     direction 0.34202 -0.939693 0   
     length 7.84737   
     axis 0 0 20   XYZ
    dof rx
    limits (-10.0 170.0)
  end
  begin
     id 4 
     name lfoot
     direction 0.0790693 -0.217241 0.97291   
     length 2.59747   
     axis -90 7.62852e-016 20   XYZ
    dof rx rz
    limits (-45.0 90.0)
           (-70.0 20.0)
  end
  begin
     id 5 
     name ltoes
     direction 1.53572e-011 -4.21898e-011 1   
     length 1.29919   
     axis -90 7.62852e-016 20   XYZ
    dof rx
    limits (-90.0 20.0)
  end
  begin
     id 6 
     name rhipjoint
     direction -0.602353 -0.708375 0.367935   
     length 2.41867  
     axis 0 0 0  XYZ 
  end
  begin
     id 7 
     name rfemur
     direction -0.34202 -0.939693 0   
     length 6.92065   
     axis 0 0 -20   XYZ
    dof rx ry rz
    limits (-160.0 20.0)
           (-70.0 70.0)
           (-70.0 60.0)
  end
  begin
     id 8 
     name rtibia
     direction -0.34202 -0.939693 0   
     length 7.88883   
     axis 0 0 -20   XYZ
    dof rx
    limits (-10.0 170.0)
 end
 begin
     id 9 
     name rfoot
     direction -0.0768692 -0.211196 0.974416   
     length 2.43714  
     axis -90 -7.62852e-016 -20   XYZ
    dof rx rz
    limits (-45.0 90.0)
           (-20.0 70.0)
  end
  begin
     id 10 
     name rtoes
     direction -1.53575e-011 -4.21933e-011 1   
     length 1.22113   
     axis -90 -7.62852e-016 -20   XYZ
    dof rx
    limits (-90.0 20.0)
  end
  begin
     id 11 
     name lowerback
     direction 0.0197937 0.98943 -0.143655   
     length 2.16931   
     axis 0 0 0   XYZ
    dof rx ry rz
    limits (-20.0 45.0)
           (-30.0 30.0)
           (-30.0 30.0)
  end
  begin
     id 12 
     name upperback
     direction -0.00183968 0.999975 0.00684288   
     length 2.17221   
     axis 0 0 0   XYZ
    dof rx ry rz
    limits (-20.0 45.0)
           (-30.0 30.0)
           (-30.0 30.0)
  end
  begin
     id 13 
     name thorax
     direction -0.00950244 0.997208 0.0740685   
     length 2.22549   
     axis 0 0 0   XYZ
    dof rx ry rz
    limits (-20.0 45.0)
           (-30.0 30.0)
           (-30.0 30.0)
  end
  begin
     id 14 
     name lowerneck
     direction 0.0218238 0.996215 0.0841425   
     length 1.77269   
     axis 0 0 0   XYZ
    dof rx ry rz
    limits (-20.0 45.0)
           (-30.0 30.0)
           (-30.0 30.0)
  end
  begin
     id 15 
     name upperneck
     direction -0.00430652 0.994214 -0.107332   
     length 1.76534   
     axis 0 0 0   XYZ
    dof rx ry rz
    limits (-20.0 45.0)
           (-30.0 30.0)
           (-30.0 30.0)
  end
  begin
     id 16
     name head
     direction -0.00328946 0.998959 -0.0454998  
     length 1.82634  
     axis 0 0 0   XYZ
    dof rx ry rz
    limits (-20.0 45.0)
           (-30.0 30.0)
           (-30.0 30.0)
  end
  begin
     id 17 
     name lclavicle
     direction 0.970962 0.239191 0.00450212  
     length 3.84872  
     axis 0 0 0   XYZ
    dof ry rz
    limits (-20.0 10.0)
           (0.0 20.0)
  end
  begin
     id 18 
     name lhumerus
     direction 1 -4.48966e-011 5.74696e-028   
     length 5.22771   
     axis 180 -30 -90   XYZ
    dof rx ry rz
    limits (-60.0 90.0)
           (-90.0 90.0)
           (-90.0 90.0)
  end
  begin
     id 19
     name lradius
     direction 1 -4.4896e-011 4.25109e-027   
     length 3.45251   
     axis 180 -30 -90   XYZ
    dof rx
    limits (-10.0 170.0)
  end
  begin
     id 20
     name lwrist
     direction 1 -4.48971e-011 1.15382e-027   
     length 1.72626   
     axis -5.52449e-016 90 90   XYZ
    dof ry
    limits (-180.0 0.0)
 end
  begin
     id 21 
     name lhand
     direction 1 -4.49034e-011 2.30765e-027   
     length 0.552119   
     axis -1.47248e-015 90 90   XYZ
    dof rx rz
    limits (-90.0 90.0)
           (-45.0 45.0)
  end
  begin
     id 22 
     name lfingers
     direction 1 -4.48951e-011 4.61529e-027   
     length 0.445133   
     axis -2.94495e-015 90 90   XYZ
    dof rx
    limits (0.0 90.0)
  end
  begin
     id 23
     name lthumb
     direction 0.707107 -6.34991e-011 0.707107   
     length 0.639124   
     axis -90 45 2.85299e-015   XYZ
    dof rx rz
    limits (-45.0 45.0)
           (-45.0 45.0)
  end
  begin
     id 24 
     name rclavicle
     direction -0.97424 0.222511 -0.0366699   
     length 3.73439  
     axis 0 0 0   XYZ 
    dof ry rz
    limits (-10.0 20.0)
           (-20.0 0.0)
  end
  begin
     id 25 
     name rhumerus
     direction -1 -4.48956e-011 -4.97258e-028  
     length 5.2398   
     axis 180 30 90   XYZ
    dof rx ry rz
    limits (-90.0 60.0)
           (-90.0 90.0)
           (-90.0 90.0)
  end
  begin
     id 26 
     name rradius
     direction -1 -4.4897e-011 -1.72611e-027   
     length 3.48042   
     axis 180 30 90   XYZ
    dof rx
    limits (-10.0 170.0)
  end
  begin
     id 27 
     name rwrist
     direction -1 -4.48976e-011 1.15382e-027   
     length 1.74021   
     axis -5.52449e-016 -90 -90   XYZ
    dof ry
    limits (-180.0 0.0)
  end
  begin
     id 28
     name rhand
     direction -1 -4.48963e-011 2.30765e-027   
     length 0.618713   
     axis -1.47248e-015 -90 -90   XYZ
    dof rx rz
    limits (-90.0 90.0)
           (-45.0 45.0)
  end
  begin
     id 29
     name rfingers
     direction -1 -4.4888e-011 4.61529e-027   
     length 0.498823   
     axis -2.94495e-015 -90 -90   XYZ
    dof rx
    limits (0.0 90.0)
  end
  begin
     id 30
     name rthumb
     direction -0.707107 -6.34968e-011 0.707107   
     length 0.716213   
     axis -90 -45 -2.85299e-015   XYZ
    dof rx rz
    limits (-45.0 45.0)
           (-45.0 45.0)
  end
:hierarchy
  begin
    root lhipjoint rhipjoint lowerback
    lhipjoint lfemur
    lfemur ltibia
    ltibia lfoot
    lfoot ltoes
    rhipjoint rfemur
    rfemur rtibia
    rtibia rfoot
    rfoot rtoes
    lowerback upperback
    upperback thorax
    thorax lowerneck lclavicle rclavicle
    lowerneck upperneck
    upperneck head
    lclavicle lhumerus
    lhumerus lradius
    lradius lwrist
    lwrist lhand lthumb
    lhand lfingers
    rclavicle rhumerus
    rhumerus rradius
    rradius rwrist
    rwrist rhand rthumb
    rhand rfingers
  end

#!OML:ASF G:\JayActor3\Patient Classification 1\Patient 1\Session 5\male.ASF
:FULLY-SPECIFIED
:DEGREES
187
root 46.5451 16.6571 -4.81756 -46.7456 88.059 -82.1725
lowerback 23.8167 -1.27784 1.28001
upperback 4.62796 -1.00486 0.145766
thorax -8.1885 -0.375331 -0.289652
lowerneck 3.19627 -0.0391839 2.16771
upperneck -18.4005 0.657886 0.938975
head -6.09162 0.270115 -0.123182
rclavicle -2.18663e-014 -1.63003e-014
rhumerus -26.7745 2.18198 -88.44
rradius 36.074
rwrist -4.60668
rhand -22.0853 -6.55839
rfingers 7.12502
rthumb 4.32642 -36.4942
lclavicle -2.18663e-014 -1.63003e-014
lhumerus -27.815 -7.70922 87.7258
lradius 38.9528
lwrist 25.327
lhand -20.4239 8.81641
lfingers 7.12502
lthumb 5.93054 38.7134
rfemur -59.1486 4.117 15.9706
rtibia 36.4622
rfoot -9.77778 -13.8555
rtoes 6.16661
lfemur -48.6899 5.77824 -23.9569
ltibia 17.4589
lfoot -2.19814 1.97388
ltoes -6.56939
188
root 46.5243 16.6561 -4.84436 -41.396 87.9873 -76.7822
lowerback 23.8847 -1.2585 1.25164
upperback 4.65174 -0.986211 0.125289
thorax -8.1971 -0.365317 -0.300924
lowerneck 3.15681 -0.0346934 2.16639
upperneck -18.3318 0.653135 0.904444
head -6.06287 0.270148 -0.133252
rclavicle -2.78299e-014 -6.55989e-015
rhumerus -26.7758 2.16491 -88.4343
rradius 36.0995
rwrist -4.61767
rhand -22.1142 -6.57433
rfingers 7.12502
rthumb 4.29845 -36.5107
lclavicle -2.78299e-014 -6.55989e-015
lhumerus -27.7425 -7.65522 87.7086
lradius 38.9133
lwrist 25.3142
lhand -20.4327 8.8101
lfingers 7.12502
lthumb 5.92209 38.7073
rfemur -59.265 4.12138 15.8671
rtibia 36.5404
rfoot -9.58535 -13.7211
rtoes 6.17223
lfemur -48.7815 6.19764 -24.3673
ltibia 17.4728
lfoot -2.184 1.58314
ltoes -6.41665
189
root 46.5031 16.655 -4.87239 -36.2194 87.8962 -71.5601
lowerback 23.9544 -1.23857 1.223
upperback 4.67614 -0.967076 0.102532
thorax -8.20585 -0.355082 -0.314715
lowerneck 3.11965 -0.0319636 2.16881
upperneck -18.2691 0.646546 0.86923
head -6.03645 0.269053 -0.144063
rclavicle 1.31198e-014 -2.18663e-014
rhumerus -26.7821 2.15124 -88.4295
rradius 36.1266
rwrist -4.63227
rhand -22.1455 -6.58565
rfingers 7.12502
rthumb 4.26831 -36.5226
lclavicle 1.31198e-014 -2.18663e-014
lhumerus -27.6711 -7.60516 87.6901
lradius 38.8758
lwrist 25.3031
lhand -20.4451 8.81123
lfingers 7.12502
lthumb 5.91006 38.7088
rfemur -59.3755 4.11656 15.7602
rtibia 36.6133
rfoot -9.38427 -13.5571
rtoes 6.19825
lfemur -48.8804 6.62463 -24.7906
ltibia 17.5016
lfoot -2.176 1.18819
ltoes -6.25711
190
root 46.4815 16.6536 -4.90122 -31.6394 87.7768 -66.9254
lowerback 24.0311 -1.21779 1.20572
upperback 4.70111 -0.943587 0.0830033
thorax -8.21763 -0.342989 -0.332765
lowerneck 3.08642 -0.0328909 2.16249
upperneck -18.2161 0.637369 0.849794
head -6.01389 0.266115 -0.148308
rclavicle -7.55382e-015 -8.54774e-015
rhumerus -26.7933 2.14267 -88.423
rradius 36.1508
rwrist -4.6507
rhand -22.1637 -6.59224
rfingers 7.12502
rthumb 4.25074 -36.5296
lclavicle -7.55382e-015 -8.54774e-015
lhumerus -27.6044 -7.56282 87.6735
lradius 38.8415
lwrist 25.2972
lhand -20.4567 8.80455
lfingers 7.12502
lthumb 5.89891 38.7024
rfemur -59.4778 4.11467 15.6623
rtibia 36.6843
rfoot -9.17442 -13.3776
rtoes 6.2097
lfemur -48.9829 7.05993 -25.2045
ltibia 17.5434
lfoot -2.17132 0.788909
ltoes -6.08377
191
root 46.4592 16.6519 -4.93095 -27.486 87.6388 -62.7136
lowerback 24.1113 -1.19668 1.1896
upperback 4.72579 -0.91937 0.0634216
thorax -8.23153 -0.33059 -0.351767
lowerneck 3.05682 -0.0331274 2.15546
upperneck -18.1745 0.63097 0.837184
head -5.99559 0.264131 -0.150495
rclavicle 1.51076e-014 1.05356e-014
rhumerus -26.8057 2.13756 -88.4162
rradius 36.1748
rwrist -4.66692
rhand -22.1665 -6.5948
rfingers 7.12502
rthumb 4.24797 -36.5322
lclavicle 1.51076e-014 1.05356e-014
lhumerus -27.5439 -7.52604 87.6566
lradius 38.8162
lwrist 25.3
lhand -20.4719 8.79015
lfingers 7.12502
lthumb 5.88425 38.6884
rfemur -59.5809 4.11198 15.5616
rtibia 36.7549
rfoot -8.9519 -13.1827
rtoes 6.22252
lfemur -49.0934 7.50302 -25.6233
ltibia 17.5942
lfoot -2.16414 0.383656
ltoes -5.88298
192
root 46.4361 16.6498 -4.96148 -23.9136 87.4793 -59.0799
lowerback 24.1972 -1.17614 1.17901
upperback 4.74922 -0.894179 0.0471828
thorax -8.24973 -0.317862 -0.370553
lowerneck 3.0765 -0.0193592 2.13767
upperneck -18.1816 0.646318 0.82612
head -6.00105 0.273153 -0.151982
rclavicle -1.35174e-014 -9.74045e-015
rhumerus -26.8202 2.14468 -88.4097
rradius 36.1986
rwrist -4.6825
rhand -22.1568 -6.59949
rfingers 7.12502
rthumb 4.25737 -36.5367
lclavicle -1.35174e-014 -9.74045e-015
lhumerus -27.4898 -7.49118 87.6398
lradius 38.7997
lwrist 25.3161
lhand -20.4827 8.77737
lfingers 7.12502
lthumb 5.87377 38.676
rfemur -59.6882 4.10722 15.4711
rtibia 36.8294
rfoot -8.716 -12.9729
rtoes 6.23869
lfemur -49.2151 7.95801 -26.0389
ltibia 17.6549
lfoot -2.15396 -0.0325334
ltoes -5.65549
193
root 46.4121 16.6482 -4.99278 -20.8333 87.3 -55.9398
lowerback 24.2849 -1.15274 1.17465
upperback 4.76972 -0.863644 0.0343553
thorax -8.27204 -0.302843 -0.390819
lowerneck 3.13505 0.00266365 2.10608
upperneck -18.2272 0.675207 0.821052
head -6.02536 0.289097 -0.150314
rclavicle -1.19271e-015 4.77083e-015
rhumerus -26.8366 2.14986 -88.3968
rradius 36.2195
rwrist -4.69064
rhand -22.131 -6.60541
rfingers 7.12502
rthumb 4.28231 -36.5421
lclavicle -1.19271e-015 4.77083e-015
lhumerus -27.4422 -7.46547 87.6286
lradius 38.7903
lwrist 25.344
lhand -20.4937 8.76453
lfingers 7.12502
lthumb 5.8632 38.6634
rfemur -59.8053 4.09805 15.3931
rtibia 36.91
rfoot -8.46432 -12.7466
rtoes 6.25662
lfemur -49.3098 8.38116 -26.4212
ltibia 17.7249
lfoot -2.17526 -0.396879
ltoes -5.54946
194
root 46.3869 16.646 -5.02459 -18.225 87.1013 -53.2764
lowerback 24.3723 -1.12804 1.17231
upperback 4.78697 -0.830925 0.024595
thorax -8.29771 -0.286955 -0.409584
lowerneck 3.17671 0.0260815 2.07317
upperneck -18.2642 0.705913 0.819233
head -6.04404 0.305979 -0.147472
rclavicle -3.89618e-014 -4.8901e-014
rhumerus -26.8519 2.15606 -88.3849
rradius 36.2343
rwrist -4.68879
rhand -22.0974 -6.61215
rfingers 7.12502
rthumb 4.31474 -36.5482
lclavicle -3.89618e-014 -4.8901e-014
lhumerus -27.3993 -7.43939 87.6161
lradius 38.7847
lwrist 25.3792
lhand -20.507 8.75182
lfingers 7.12502
lthumb 5.8503 38.6511
rfemur -59.941 4.07988 15.3355
rtibia 37.0029
rfoot -8.19009 -12.5032
rtoes 6.27518
lfemur -49.4284 8.8234 -26.8051
ltibia 17.8076
lfoot -2.19759 -0.777153
ltoes -5.42441
195
root 46.3604 16.6436 -5.05678 -16.0657 86.8892 -51.0734
lowerback 24.4523 -1.10312 1.17292
upperback 4.79952 -0.797331 0.0192826
thorax -8.32464 -0.270898 -0.425507
lowerneck 3.19719 0.0470276 2.04097
upperneck -18.2885 0.732271 0.816627
head -6.05511 0.320928 -0.144656
rclavicle 1.19271e-014 -8.34896e-015
rhumerus -26.8645 2.16895 -88.3718
rradius 36.2412
rwrist -4.68396
rhand -22.0646 -6.61858
rfingers 7.12502
rthumb 4.34642 -36.554
lclavicle 1.19271e-014 -8.34896e-015
lhumerus -27.3608 -7.4115 87.6035
lradius 38.7827
lwrist 25.4191
lhand -20.5192 8.75018
lfingers 7.12502
lthumb 5.83856 38.6497
rfemur -60.1055 4.05004 15.2964
rtibia 37.1101
rfoot -7.89236 -12.2474
rtoes 6.29545
lfemur -49.5821 9.28973 -27.2004
ltibia 17.9071
lfoot -2.22441 -1.18686
ltoes -5.29019
196
root 46.3322 16.6409 -5.08927 -14.2526 86.668 -49.2333
lowerback 24.5188 -1.07733 1.17705
upperback 4.80562 -0.762366 0.0160733
thorax -8.35174 -0.254564 -0.441681
lowerneck 3.17251 0.0574898 2.01866
upperneck -18.2739 0.74332 0.817964
head -6.04614 0.327705 -0.141057
rclavicle -2.34566e-014 -2.38542e-015
rhumerus -26.8761 2.1753 -88.3578
rradius 36.2407
rwrist -4.6681
rhand -22.0355 -6.62507
rfingers 7.12502
rthumb 4.37453 -36.5599
lclavicle -2.34566e-014 -2.38542e-015
lhumerus -27.3259 -7.38099 87.5889
lradius 38.7801
lwrist 25.4516
lhand -20.536 8.74233
lfingers 7.12502
lthumb 5.82234 38.6423
rfemur -60.3079 4.00916 15.2696
rtibia 37.2361
rfoot -7.56912 -11.9847
rtoes 6.29624
lfemur -49.7829 9.7838 -27.6187
ltibia 18.0297
lfoot -2.2593 -1.63324
ltoes -5.15345
197
root 46.3025 16.6377 -5.12211 -12.6299 86.4359 -47.5986
lowerback 24.5721 -1.05083 1.17682
upperback 4.80682 -0.728302 0.0132339
thorax -8.37732 -0.238804 -0.45478
lowerneck 3.09532 0.0605584 2.01046
upperneck -18.2145 0.742488 0.817575
head -6.01402 0.328186 -0.139349
rclavicle -2.38542e-014 -1.78906e-014
rhumerus -26.884 2.18596 -88.3468
rradius 36.2326
rwrist -4.64911
rhand -22.0189 -6.6304
rfingers 7.12502
rthumb 4.39049 -36.5649
lclavicle -2.38542e-014 -1.78906e-014
lhumerus -27.2922 -7.34132 87.5672
lradius 38.7748
lwrist 25.4808
lhand -20.5592 8.74125
lfingers 7.12502
lthumb 5.79996 38.6419
rfemur -60.5445 3.96272 15.2468
rtibia 37.3786
rfoot -7.22166 -11.7158
rtoes 6.2994
lfemur -50.0304 10.3002 -28.0606
ltibia 18.1789
lfoot -2.30351 -2.10329
ltoes -5.02098
198
root 46.2715 16.6339 -5.15534 -11.2378 86.1884 -46.2083
lowerback 24.61 -1.022 1.18104
upperback 4.80374 -0.690861 0.010947
thorax -8.39976 -0.221806 -0.47098
lowerneck 2.9926 0.0584352 2.01001
upperneck -18.1291 0.734134 0.819986
head -5.96935 0.324381 -0.137441
rclavicle -4.13472e-014 -3.73715e-014
rhumerus -26.8907 2.19527 -88.337
rradius 36.2212
rwrist -4.62525
rhand -22.0134 -6.62968
rfingers 7.12502
rthumb 4.39583 -36.5641
lclavicle -4.13472e-014 -3.73715e-014
lhumerus -27.258 -7.29756 87.5392
lradius 38.7644
lwrist 25.5078
lhand -20.5779 8.74722
lfingers 7.12502
lthumb 5.78184 38.6483
rfemur -60.8107 3.92387 15.2249
rtibia 37.5343
rfoot -6.85549 -11.4516
rtoes 6.28566
lfemur -50.3227 10.8306 -28.5113
ltibia 18.3572
lfoot -2.36398 -2.58154
ltoes -4.91617
199
root 46.2394 16.6297 -5.1889 -10.085 85.9231 -45.0668
lowerback 24.6374 -0.991093 1.19151
upperback 4.79818 -0.649666 0.00927263
thorax -8.4195 -0.203357 -0.491347
lowerneck 2.87317 0.0557373 2.0214
upperneck -18.0227 0.724082 0.817719
head -5.91523 0.319358 -0.13878
rclavicle 4.13472e-014 3.85642e-014
rhumerus -26.894 2.19991 -88.3306
rradius 36.2096
rwrist -4.60173
rhand -22.0122 -6.6252
rfingers 7.12502
rthumb 4.39696 -36.5596
lclavicle 4.13472e-014 3.85642e-014
lhumerus -27.2213 -7.24854 87.5032
lradius 38.7462
lwrist 25.528
lhand -20.6003 8.74656
lfingers 7.12502
lthumb 5.76028 38.6483
rfemur -61.0984 3.90736 15.1954
rtibia 37.7003
rfoot -6.48096 -11.2174
rtoes 6.19563
lfemur -50.6511 11.3525 -28.9455
ltibia 18.5647
lfoot -2.43455 -3.03321
ltoes -4.83128
200
root 46.2064 16.6248 -5.22273 -9.06146 85.6372 -44.0585
lowerback 24.6573 -0.955176 1.20208
upperback 4.79179 -0.602488 0.00640172
thorax -8.43622 -0.182215 -0.515012
lowerneck 2.78968 0.0652668 2.02906
upperneck -17.9395 0.731435 0.811326
head -5.87453 0.323153 -0.141995
rclavicle -2.38542e-014 -3.57812e-014
rhumerus -26.8958 2.20153 -88.3276
rradius 36.203
rwrist -4.58509
rhand -22.0148 -6.61706
rfingers 7.12502
rthumb 4.39446 -36.5515
lclavicle -2.38542e-014 -3.57812e-014
lhumerus -27.1798 -7.19988 87.4608
lradius 38.7181
lwrist 25.5385
lhand -20.6297 8.75181
lfingers 7.12502
lthumb 5.73185 38.6543
rfemur -61.4003 3.92406 15.1436
rtibia 37.8765
rfoot -6.1138 -11.0386
rtoes 5.94219
lfemur -51.0039 11.8554 -29.354
ltibia 18.7976
lfoot -2.51299 -3.43873
ltoes -4.76878
201
root 46.172 16.6189 -5.25649 -7.95818 85.3305 -42.9666
lowerback 24.686 -0.90883 1.19374
upperback 4.784 -0.547073 -0.000827084
thorax -8.45866 -0.156853 -0.535175
lowerneck 2.75368 0.0853861 2.0341
upperneck -17.8907 0.753848 0.796104
head -5.85272 0.334779 -0.148654
rclavicle 1.35174e-014 -7.15625e-015
rhumerus -26.8957 2.1942 -88.3256
rradius 36.2011
rwrist -4.57213
rhand -22.0145 -6.60773
rfingers 7.12502
rthumb 4.39474 -36.5421
lclavicle 1.35174e-014 -7.15625e-015
lhumerus -27.1335 -7.15441 87.4147
lradius 38.6811
lwrist 25.5385
lhand -20.6752 8.75859
lfingers 7.12502
lthumb 5.68792 38.6623
rfemur -61.7131 3.99509 15.0341
rtibia 38.0641
rfoot -5.80229 -10.9212
rtoes 5.38527
lfemur -51.3652 12.3065 -29.7171
ltibia 19.0506
lfoot -2.58914 -3.75315
ltoes -4.72619
